<svg xmlns="http://www.w3.org/2000/svg" width="14.997" height="14.997" viewBox="0 0 14.997 14.997">
  <g id="Group_49756" data-name="Group 49756" transform="translate(-2032.862 -3737.862)">
    <path id="Path_7" data-name="Path 7" d="M12.8,0H2.2A2.2,2.2,0,0,0,0,2.2V12.8A2.2,2.2,0,0,0,2.2,15H6.62V9.7H4.862V7.059H6.62V5.272A2.639,2.639,0,0,1,9.256,2.636h2.665V5.272H9.256V7.059h2.665L11.482,9.7H9.256V15H12.8A2.2,2.2,0,0,0,15,12.8V2.2A2.2,2.2,0,0,0,12.8,0Z" transform="translate(2032.862 3737.862)" fill="#212121"/>
  </g>
</svg>
