<svg xmlns="http://www.w3.org/2000/svg" width="12.35" height="15.2" viewBox="0 0 12.35 15.2">
  <g id="Group_49758" data-name="Group 49758" transform="translate(-2120.849 -3737.825)">
    <path id="Path_12" data-name="Path 12" d="M54.382,0C50.215,0,48,2.67,48,5.581a4.078,4.078,0,0,0,1.962,3.568c.345.155.3-.034.6-1.168a.269.269,0,0,0-.065-.264c-1.727-2-.337-6.1,3.642-6.1,5.759,0,4.683,7.969,1,7.969a1.359,1.359,0,0,1-1.432-1.666,18.049,18.049,0,0,0,.8-3.069c0-1.994-2.97-1.7-2.97.944a3.2,3.2,0,0,0,.289,1.367s-.956,3.861-1.133,4.582a10.246,10.246,0,0,0,.07,3.368.1.1,0,0,0,.182.046,11.943,11.943,0,0,0,1.573-2.963c.118-.434.6-2.195.6-2.195a2.626,2.626,0,0,0,2.215,1.056c2.911,0,5.015-2.559,5.015-5.734C60.34,2.278,57.735,0,54.382,0Z" transform="translate(2072.849 3737.825)" fill="#212121"/>
  </g>
</svg>
