<svg xmlns="http://www.w3.org/2000/svg" width="15.233" height="12.377" viewBox="0 0 15.233 12.377">
  <g id="Group_95" data-name="Group 95" transform="translate(0 -48)">
    <g id="Group_94" data-name="Group 94" transform="translate(0 48)">
      <path id="Path_11" data-name="Path 11" d="M15.233,49.465a6.511,6.511,0,0,1-1.8.493,3.105,3.105,0,0,0,1.374-1.726,6.241,6.241,0,0,1-1.98.756,3.123,3.123,0,0,0-5.4,2.136,3.216,3.216,0,0,0,.072.712,8.84,8.84,0,0,1-6.437-3.267,3.124,3.124,0,0,0,.96,4.174,3.084,3.084,0,0,1-1.411-.385v.034a3.137,3.137,0,0,0,2.5,3.069,3.117,3.117,0,0,1-.819.1,2.761,2.761,0,0,1-.591-.053,3.153,3.153,0,0,0,2.918,2.175A6.275,6.275,0,0,1,.747,59.018,5.849,5.849,0,0,1,0,58.976a8.792,8.792,0,0,0,4.791,1.4,8.827,8.827,0,0,0,8.889-8.887c0-.138,0-.271-.011-.4A6.23,6.23,0,0,0,15.233,49.465Z" transform="translate(0 -48)" fill="#212121"/>
    </g>
  </g>
</svg>
