<svg xmlns="http://www.w3.org/2000/svg" width="14.483" height="14.486" viewBox="0 0 14.483 14.486">
  <g id="Group_49757" data-name="Group 49757" transform="translate(-2062 -3738.373)">
    <g id="Group_93" data-name="Group 93" transform="translate(2061.102 3738.373)">
      <path id="Path_8" data-name="Path 8" d="M15.344,4.259A5.294,5.294,0,0,0,15.007,2.5,3.711,3.711,0,0,0,12.888.382,5.307,5.307,0,0,0,11.131.045C10.355.009,10.109,0,8.142,0S5.929.009,5.157.042A5.294,5.294,0,0,0,3.4.379a3.534,3.534,0,0,0-1.285.838A3.567,3.567,0,0,0,1.28,2.5,5.307,5.307,0,0,0,.943,4.256C.907,5.031.9,5.278.9,7.244S.907,9.457.94,10.23a5.293,5.293,0,0,0,.337,1.757A3.71,3.71,0,0,0,3.4,14.106a5.308,5.308,0,0,0,1.757.337c.772.034,1.019.042,2.985.042s2.213-.008,2.985-.042a5.292,5.292,0,0,0,1.757-.337A3.705,3.705,0,0,0,15,11.987a5.311,5.311,0,0,0,.337-1.757c.034-.773.042-1.019.042-2.985S15.378,5.031,15.344,4.259Zm-1.3,5.914a3.97,3.97,0,0,1-.249,1.344,2.4,2.4,0,0,1-1.375,1.375,3.985,3.985,0,0,1-1.344.249c-.764.034-.993.042-2.926.042s-2.165-.008-2.926-.042a3.969,3.969,0,0,1-1.344-.249,2.229,2.229,0,0,1-.832-.541A2.253,2.253,0,0,1,2.5,11.52a3.985,3.985,0,0,1-.249-1.344c-.034-.764-.042-.993-.042-2.926s.008-2.165.042-2.926A3.968,3.968,0,0,1,2.5,2.98a2.2,2.2,0,0,1,.543-.832,2.248,2.248,0,0,1,.832-.54,3.987,3.987,0,0,1,1.344-.249c.764-.034.993-.042,2.926-.042s2.165.009,2.926.042a3.97,3.97,0,0,1,1.344.249,2.227,2.227,0,0,1,.832.54,2.252,2.252,0,0,1,.541.832,3.986,3.986,0,0,1,.249,1.344c.034.764.042.993.042,2.926S14.074,9.409,14.04,10.173Z" transform="translate(0 0)" fill="#212121"/>
      <path id="Path_9" data-name="Path 9" d="M128.9,124.281A3.721,3.721,0,1,0,132.621,128,3.722,3.722,0,0,0,128.9,124.281Zm0,6.135A2.414,2.414,0,1,1,131.314,128,2.414,2.414,0,0,1,128.9,130.416Z" transform="translate(-120.758 -120.758)" fill="#212121"/>
      <path id="Path_10" data-name="Path 10" d="M364,89.315a.869.869,0,1,1-.869-.869A.869.869,0,0,1,364,89.315Z" transform="translate(-351.119 -85.939)" fill="#212121"/>
    </g>
  </g>
</svg>
